<svg xmlns="http://www.w3.org/2000/svg" xmlns:xlink="http://www.w3.org/1999/xlink" width="500" zoomAndPan="magnify" viewBox="0 0 375 374.999991" height="500" preserveAspectRatio="xMidYMid meet" version="1.0"><defs><g/><clipPath id="bdf954db9f"><path d="M 37.5 168.613281 L 75.046875 168.613281 L 75.046875 206.160156 L 37.5 206.160156 Z M 37.5 168.613281 " clip-rule="nonzero"/></clipPath><clipPath id="1851a63796"><path d="M 56.273438 168.613281 C 45.90625 168.613281 37.5 177.019531 37.5 187.386719 C 37.5 197.753906 45.90625 206.160156 56.273438 206.160156 C 66.640625 206.160156 75.046875 197.753906 75.046875 187.386719 C 75.046875 177.019531 66.640625 168.613281 56.273438 168.613281 Z M 56.273438 168.613281 " clip-rule="nonzero"/></clipPath></defs><g clip-path="url(#bdf954db9f)"><g clip-path="url(#1851a63796)"><path fill="#ba2025" d="M 37.5 168.613281 L 75.046875 168.613281 L 75.046875 206.160156 L 37.5 206.160156 Z M 37.5 168.613281 " fill-opacity="1" fill-rule="nonzero"/></g></g><g fill="#231f20" fill-opacity="1"><g transform="translate(76.219378, 205.989797)"><g><path d="M 34.859375 -32.625 L 23.25 -32.625 L 17.59375 0 L 9.71875 0 L 15.359375 -32.625 L 3.875 -32.625 L 5.03125 -39.171875 L 36.015625 -39.171875 Z M 34.859375 -32.625 "/></g></g></g><g fill="#231f20" fill-opacity="1"><g transform="translate(106.954687, 205.989797)"><g><path d="M 16.921875 0 C 16.691406 -0.738281 16.59375 -1.617188 16.625 -2.640625 C 14.4375 -0.453125 11.960938 0.601562 9.203125 0.53125 C 6.648438 0.5 4.535156 -0.328125 2.859375 -1.953125 C 1.179688 -3.578125 0.398438 -5.582031 0.515625 -7.96875 C 0.640625 -11.132812 1.96875 -13.566406 4.5 -15.265625 C 7.039062 -16.960938 10.445312 -17.8125 14.71875 -17.8125 L 18.265625 -17.75 L 18.640625 -19.5 C 18.742188 -20.09375 18.769531 -20.660156 18.71875 -21.203125 C 18.632812 -22.046875 18.316406 -22.703125 17.765625 -23.171875 C 17.222656 -23.648438 16.503906 -23.898438 15.609375 -23.921875 C 14.421875 -23.953125 13.414062 -23.65625 12.59375 -23.03125 C 11.769531 -22.414062 11.238281 -21.523438 11 -20.359375 L 3.390625 -20.34375 C 3.515625 -23.113281 4.789062 -25.363281 7.21875 -27.09375 C 9.65625 -28.832031 12.65625 -29.679688 16.21875 -29.640625 C 19.519531 -29.566406 22.101562 -28.582031 23.96875 -26.6875 C 25.832031 -24.800781 26.613281 -22.367188 26.3125 -19.390625 L 24.078125 -5.46875 L 23.9375 -3.734375 C 23.90625 -2.460938 24.0625 -1.390625 24.40625 -0.515625 L 24.375 0 Z M 11.078125 -5.359375 C 13.265625 -5.285156 15.175781 -6.234375 16.8125 -8.203125 L 17.75 -13.234375 L 15.125 -13.265625 C 12.320312 -13.191406 10.300781 -12.335938 9.0625 -10.703125 C 8.613281 -10.109375 8.335938 -9.382812 8.234375 -8.53125 C 8.085938 -7.5625 8.285156 -6.789062 8.828125 -6.21875 C 9.378906 -5.65625 10.128906 -5.367188 11.078125 -5.359375 Z M 11.078125 -5.359375 "/></g></g></g><g fill="#231f20" fill-opacity="1"><g transform="translate(133.278947, 205.989797)"><g><path d="M 16.953125 -8.203125 C 17.234375 -9.640625 16.238281 -10.679688 13.96875 -11.328125 L 11.515625 -11.9375 C 5.722656 -13.539062 2.90625 -16.359375 3.0625 -20.390625 C 3.15625 -23.128906 4.367188 -25.363281 6.703125 -27.09375 C 9.046875 -28.832031 11.867188 -29.679688 15.171875 -29.640625 C 18.453125 -29.609375 21.101562 -28.738281 23.125 -27.03125 C 25.15625 -25.332031 26.191406 -23.066406 26.234375 -20.234375 L 18.703125 -20.25 C 18.734375 -22.75 17.492188 -24.015625 14.984375 -24.046875 C 13.796875 -24.046875 12.765625 -23.75 11.890625 -23.15625 C 11.023438 -22.570312 10.492188 -21.773438 10.296875 -20.765625 C 10.035156 -19.328125 11.125 -18.316406 13.5625 -17.734375 L 14.640625 -17.484375 C 17.109375 -16.890625 19 -16.210938 20.3125 -15.453125 C 21.625 -14.691406 22.632812 -13.742188 23.34375 -12.609375 C 24.050781 -11.484375 24.375 -10.128906 24.3125 -8.546875 C 24.257812 -6.703125 23.664062 -5.085938 22.53125 -3.703125 C 21.394531 -2.328125 19.832031 -1.257812 17.84375 -0.5 C 15.863281 0.25 13.78125 0.59375 11.59375 0.53125 C 8.363281 0.5 5.671875 -0.425781 3.515625 -2.25 C 1.367188 -4.070312 0.273438 -6.425781 0.234375 -9.3125 L 7.390625 -9.25 C 7.460938 -6.46875 8.953125 -5.0625 11.859375 -5.03125 C 13.265625 -5.03125 14.414062 -5.316406 15.3125 -5.890625 C 16.21875 -6.460938 16.765625 -7.234375 16.953125 -8.203125 Z M 16.953125 -8.203125 "/></g></g></g><g fill="#231f20" fill-opacity="1"><g transform="translate(158.419753, 205.989797)"><g><path d="M 12.671875 -11.59375 L 9.140625 -8.53125 L 7.671875 0 L 0.078125 0 L 7.234375 -41.328125 L 14.84375 -41.328125 L 10.921875 -18.890625 L 12.40625 -20.46875 L 21.03125 -29.109375 L 30.78125 -29.109375 L 18.046875 -16.59375 L 26.140625 0 L 17.828125 0 Z M 12.671875 -11.59375 "/></g></g></g><g fill="#ba2025" fill-opacity="1"><g transform="translate(187.242208, 205.587272)"><g><path d="M 32.140625 -11.375 L 41.59375 -39.171875 L 49.625 -39.171875 L 35.078125 0 L 27.140625 0 L 25.078125 -26.09375 L 14.828125 0 L 6.890625 0 L 4.578125 -39.171875 L 12.265625 -39.171875 L 13.046875 -11.515625 L 23.59375 -39.171875 L 30.296875 -39.171875 Z M 32.140625 -11.375 "/></g></g></g><g fill="#ba2025" fill-opacity="1"><g transform="translate(231.641687, 205.587272)"><g><path d="M 16.921875 0 C 16.691406 -0.738281 16.59375 -1.617188 16.625 -2.640625 C 14.4375 -0.453125 11.960938 0.601562 9.203125 0.53125 C 6.648438 0.5 4.535156 -0.328125 2.859375 -1.953125 C 1.179688 -3.578125 0.398438 -5.582031 0.515625 -7.96875 C 0.640625 -11.132812 1.96875 -13.566406 4.5 -15.265625 C 7.039062 -16.960938 10.445312 -17.8125 14.71875 -17.8125 L 18.265625 -17.75 L 18.640625 -19.5 C 18.742188 -20.09375 18.769531 -20.660156 18.71875 -21.203125 C 18.632812 -22.046875 18.316406 -22.703125 17.765625 -23.171875 C 17.222656 -23.648438 16.503906 -23.898438 15.609375 -23.921875 C 14.421875 -23.953125 13.414062 -23.65625 12.59375 -23.03125 C 11.769531 -22.414062 11.238281 -21.523438 11 -20.359375 L 3.390625 -20.34375 C 3.515625 -23.113281 4.789062 -25.363281 7.21875 -27.09375 C 9.65625 -28.832031 12.65625 -29.679688 16.21875 -29.640625 C 19.519531 -29.566406 22.101562 -28.582031 23.96875 -26.6875 C 25.832031 -24.800781 26.613281 -22.367188 26.3125 -19.390625 L 24.078125 -5.46875 L 23.9375 -3.734375 C 23.90625 -2.460938 24.0625 -1.390625 24.40625 -0.515625 L 24.375 0 Z M 11.078125 -5.359375 C 13.265625 -5.285156 15.175781 -6.234375 16.8125 -8.203125 L 17.75 -13.234375 L 15.125 -13.265625 C 12.320312 -13.191406 10.300781 -12.335938 9.0625 -10.703125 C 8.613281 -10.109375 8.335938 -9.382812 8.234375 -8.53125 C 8.085938 -7.5625 8.285156 -6.789062 8.828125 -6.21875 C 9.378906 -5.65625 10.128906 -5.367188 11.078125 -5.359375 Z M 11.078125 -5.359375 "/></g></g></g><g fill="#ba2025" fill-opacity="1"><g transform="translate(257.966365, 205.587272)"><g><path d="M 12.328125 -9.609375 L 20.609375 -29.109375 L 28.78125 -29.109375 L 14.71875 0 L 7.453125 0 L 2.46875 -29.109375 L 10.171875 -29.109375 Z M 12.328125 -9.609375 "/></g></g></g><g fill="#ba2025" fill-opacity="1"><g transform="translate(282.650316, 205.587272)"><g><path d="M 13.90625 0.53125 C 11.363281 0.519531 9.109375 -0.0976562 7.140625 -1.328125 C 5.179688 -2.554688 3.71875 -4.242188 2.75 -6.390625 C 1.78125 -8.535156 1.398438 -10.898438 1.609375 -13.484375 L 1.6875 -14.546875 C 1.957031 -17.378906 2.78125 -19.976562 4.15625 -22.34375 C 5.539062 -24.71875 7.316406 -26.546875 9.484375 -27.828125 C 11.660156 -29.109375 14.066406 -29.710938 16.703125 -29.640625 C 20.453125 -29.566406 23.289062 -28.191406 25.21875 -25.515625 C 27.144531 -22.835938 27.875 -19.441406 27.40625 -15.328125 L 26.984375 -12.03125 L 9.140625 -12.03125 C 9.066406 -10.144531 9.523438 -8.632812 10.515625 -7.5 C 11.503906 -6.375 12.847656 -5.789062 14.546875 -5.75 C 17.316406 -5.6875 19.738281 -6.753906 21.8125 -8.953125 L 25.28125 -4.65625 C 24.1875 -3 22.609375 -1.707031 20.546875 -0.78125 C 18.484375 0.132812 16.269531 0.570312 13.90625 0.53125 Z M 16.328125 -23.375 C 14.929688 -23.414062 13.6875 -22.976562 12.59375 -22.0625 C 11.507812 -21.144531 10.539062 -19.554688 9.6875 -17.296875 L 20.125 -17.296875 L 20.28125 -18 C 20.382812 -18.71875 20.394531 -19.398438 20.3125 -20.046875 C 20.132812 -21.085938 19.691406 -21.894531 18.984375 -22.46875 C 18.285156 -23.050781 17.398438 -23.351562 16.328125 -23.375 Z M 16.328125 -23.375 "/></g></g></g><g fill="#ba2025" fill-opacity="1"><g transform="translate(309.217065, 205.587272)"><g><path d="M 16.953125 -8.203125 C 17.234375 -9.640625 16.238281 -10.679688 13.96875 -11.328125 L 11.515625 -11.9375 C 5.722656 -13.539062 2.90625 -16.359375 3.0625 -20.390625 C 3.15625 -23.128906 4.367188 -25.363281 6.703125 -27.09375 C 9.046875 -28.832031 11.867188 -29.679688 15.171875 -29.640625 C 18.453125 -29.609375 21.101562 -28.738281 23.125 -27.03125 C 25.15625 -25.332031 26.191406 -23.066406 26.234375 -20.234375 L 18.703125 -20.25 C 18.734375 -22.75 17.492188 -24.015625 14.984375 -24.046875 C 13.796875 -24.046875 12.765625 -23.75 11.890625 -23.15625 C 11.023438 -22.570312 10.492188 -21.773438 10.296875 -20.765625 C 10.035156 -19.328125 11.125 -18.316406 13.5625 -17.734375 L 14.640625 -17.484375 C 17.109375 -16.890625 19 -16.210938 20.3125 -15.453125 C 21.625 -14.691406 22.632812 -13.742188 23.34375 -12.609375 C 24.050781 -11.484375 24.375 -10.128906 24.3125 -8.546875 C 24.257812 -6.703125 23.664062 -5.085938 22.53125 -3.703125 C 21.394531 -2.328125 19.832031 -1.257812 17.84375 -0.5 C 15.863281 0.25 13.78125 0.59375 11.59375 0.53125 C 8.363281 0.5 5.671875 -0.425781 3.515625 -2.25 C 1.367188 -4.070312 0.273438 -6.425781 0.234375 -9.3125 L 7.390625 -9.25 C 7.460938 -6.46875 8.953125 -5.0625 11.859375 -5.03125 C 13.265625 -5.03125 14.414062 -5.316406 15.3125 -5.890625 C 16.21875 -6.460938 16.765625 -7.234375 16.953125 -8.203125 Z M 16.953125 -8.203125 "/></g></g></g></svg>